<svg viewBox="0 0 768 768" xmlns="http://www.w3.org/2000/svg">
  <!-- Background circle -->
  <circle cx="384" cy="240" r="180" fill="#f7a325" opacity="0.1"/>
  
  <!-- Decorative elements -->
  <g stroke="#6b4423" stroke-width="8" fill="none" stroke-linecap="round">
    <!-- Left scroll -->
    <path d="M 150 200 Q 120 220 120 260 Q 120 300 150 320"/>
    <circle cx="140" cy="180" r="12" fill="#f7a325"/>
    
    <!-- Right scroll -->
    <path d="M 618 200 Q 648 220 648 260 Q 648 300 618 320"/>
    <circle cx="628" cy="180" r="12" fill="#f7a325"/>
    
    <!-- Top crown -->
    <path d="M 320 80 L 360 120 L 384 60 L 408 120 L 448 80"/>
    <path d="M 340 100 L 384 140 L 428 100"/>
  </g>
  
  <!-- Cake slice -->
  <g>
    <!-- Cake layers -->
    <rect x="260" y="200" width="200" height="50" fill="#8b6914" rx="4"/>
    <rect x="260" y="260" width="200" height="50" fill="#f7a325" rx="4"/>
    <rect x="260" y="320" width="200" height="50" fill="#8b6914" rx="4"/>
    
    <!-- Frosting on top -->
    <path d="M 280 200 Q 300 150 320 160 Q 340 150 360 160 Q 380 150 384 140 Q 388 150 408 160 Q 428 150 448 160 Q 468 150 488 200" fill="#f5f5dc"/>
    <circle cx="310" cy="170" r="8" fill="#8b6914"/>
    <circle cx="360" cy="140" r="10" fill="#8b6914"/>
    <circle cx="410" cy="170" r="8" fill="#8b6914"/>
    <circle cx="384" cy="130" r="6" fill="#f7a325"/>
  </g>
  
  <!-- Text -->
  <text x="384" y="420" font-family="Georgia, serif" font-size="48" font-weight="bold" text-anchor="middle" fill="#6b4423">
    AMRUT
  </text>
  <text x="384" y="480" font-family="Georgia, serif" font-size="48" font-weight="bold" text-anchor="middle" fill="#6b4423">
    CAKE
  </text>
</svg>